<svg id="Layer_3" data-name="Layer 3" xmlns="http://www.w3.org/2000/svg" xmlns:xlink="http://www.w3.org/1999/xlink" viewBox="0 0 70.86 70.86"><defs><style>.cls-1,.cls-8{fill:#fff;}.cls-2,.cls-5,.cls-6,.cls-7,.cls-8,.cls-9{stroke:#231f20;stroke-miterlimit:10;}.cls-2,.cls-6{stroke-width:2px;}.cls-2{fill:url(#linear-gradient);}.cls-3{fill:url(#linear-gradient-2);}.cls-4{fill:#231f20;}.cls-5{fill:url(#linear-gradient-3);}.cls-6,.cls-7,.cls-9{fill:none;}.cls-7,.cls-8{stroke-width:0.75px;}</style><linearGradient id="linear-gradient" x1="36.04" y1="57.96" x2="36.04" y2="6.43" gradientUnits="userSpaceOnUse"><stop offset="0" stop-color="#fff"/><stop offset="0.05" stop-color="#fcdcda"/><stop offset="0.11" stop-color="#f9b8b4"/><stop offset="0.17" stop-color="#f69791"/><stop offset="0.24" stop-color="#f47c75"/><stop offset="0.32" stop-color="#f2665e"/><stop offset="0.41" stop-color="#f1564c"/><stop offset="0.52" stop-color="#f04a3f"/><stop offset="0.66" stop-color="#ef4338"/><stop offset="1" stop-color="#ef4136"/></linearGradient><linearGradient id="linear-gradient-2" x1="35.43" y1="70.45" x2="35.43" y2="57.17" gradientUnits="userSpaceOnUse"><stop offset="0" stop-color="#16356c"/><stop offset="1" stop-color="#00658d"/></linearGradient><linearGradient id="linear-gradient-3" x1="36.06" y1="57.96" x2="36.06" y2="21.44" gradientUnits="userSpaceOnUse"><stop offset="0" stop-color="#ef4136"/><stop offset="1" stop-color="#ef4136"/></linearGradient></defs><path class="cls-1" d="M1.65,2H70.5a0,0,0,0,1,0,0V47.08a10,10,0,0,1-10,10H11.68a10,10,0,0,1-10-10V2A0,0,0,0,1,1.65,2Z" transform="translate(71.54 58.32) rotate(-180)"/><path class="cls-2" d="M15.66,58a29.8,29.8,0,1,1,40.75,0" transform="translate(-0.61 -0.8)"/><path class="cls-3" d="M.73,57.17H70.12a0,0,0,0,1,0,0v3.25a10,10,0,0,1-10,10H10.77a10,10,0,0,1-10-10V57.17A0,0,0,0,1,.73,57.17Z"/><path class="cls-4" d="M59.45,24.05v1.46a1.46,1.46,0,0,1-.06.46c-.55,1.91-4.27,2.09-4.27,2.09V58H51.27V28.06H20.88V58H17V28.06s-3.72-.18-4.28-2.09a1.82,1.82,0,0,1-.06-.46V24.05a.82.82,0,0,1,.83-.81H58.63A.82.82,0,0,1,59.45,24.05Z" transform="translate(-0.61 -0.8)"/><path class="cls-5" d="M59,22.29v1.53a2,2,0,0,1,0,.48c-.55,2-4.21,2.2-4.21,2.2V58H51V26.5H21.12V58H17.34V26.5s-3.66-.18-4.21-2.2a2,2,0,0,1-.06-.48V22.29a.84.84,0,0,1,.82-.85H58.23A.83.83,0,0,1,59,22.29Z" transform="translate(-0.61 -0.8)"/><line class="cls-6" x1="50.39" y1="26.44" x2="20.51" y2="26.43"/><line class="cls-7" x1="58.56" y1="21.15" x2="12.34" y2="21.14"/><path class="cls-8" d="M19.48,36.39l6.7,6.7a.16.16,0,0,1,0,.22L24.5,45a.16.16,0,0,1-.22,0l-5-5a.16.16,0,0,0-.22,0l-4.8,4.8a.16.16,0,0,1-.22,0l-1.51-1.51a.16.16,0,0,1,0-.22l6.7-6.7A.16.16,0,0,1,19.48,36.39Z" transform="translate(-0.61 -0.8)"/><path class="cls-8" d="M52.6,45l-6.7-6.7a.16.16,0,0,1,0-.22l1.68-1.68a.16.16,0,0,1,.22,0l5,5a.16.16,0,0,0,.22,0l4.8-4.8a.16.16,0,0,1,.22,0l1.51,1.51a.16.16,0,0,1,0,.22L52.82,45A.16.16,0,0,1,52.6,45Z" transform="translate(-0.61 -0.8)"/><rect class="cls-6" x="1" y="1" width="68.86" height="68.86" rx="10.25"/><line class="cls-9" x1="1" y1="57.17" x2="69.86" y2="57.17"/><line class="cls-9" x1="1" y1="56.7" x2="69.86" y2="56.7"/><line class="cls-9" x1="1.04" y1="55.95" x2="69.89" y2="55.95"/></svg>